<svg width="246" height="96" viewBox="0 0 246 96" fill="none" xmlns="http://www.w3.org/2000/svg">
<rect width="246" height="96" rx="48" fill="white"/>
<path d="M114.862 62.4818L104.56 33.3374H113.498L122.813 62.4797L114.862 62.4818ZM113.01 74.2011L117.224 62.4818L120.177 55.7689L127.484 33.3374H135.912L121.417 74.2011H113.01Z" fill="black"/>
<path d="M145.9 63.0152C142.894 63.0152 140.554 62.236 138.881 60.6777C137.207 59.1194 136.37 57.0893 136.369 54.5875C136.369 51.8363 137.331 49.6879 139.255 48.1423C141.18 46.5968 144.289 45.6823 148.583 45.399L154.757 44.8911L155.671 49.581L149.442 50.0867C147.795 50.21 146.609 50.5825 145.885 51.2045C145.161 51.8264 144.799 52.6764 144.799 53.7545C144.799 54.8184 145.13 55.6393 145.791 56.2173C146.452 56.7953 147.42 57.09 148.697 57.1013C149.52 57.0921 150.336 56.9485 151.112 56.6763C151.966 56.3829 152.739 55.8953 153.369 55.2526V44.6C153.369 43.2697 153.149 42.2221 152.71 41.4571C152.236 40.6657 151.479 40.0806 150.59 39.8187C149.616 39.4915 148.314 39.3271 146.684 39.3257C145.4 39.3369 144.118 39.4306 142.846 39.6062C141.454 39.7846 140.08 40.0832 138.739 40.4987V34.111C140.282 33.6808 141.858 33.3738 143.45 33.193C145.031 32.997 146.622 32.8948 148.215 32.887C151.329 32.887 153.883 33.2688 155.879 34.0323C157.781 34.7154 159.356 36.0799 160.295 37.8573C161.243 39.6423 161.717 42.0705 161.717 45.1418V62.484H154.678L154.087 59.5791H153.684C152.836 60.7463 151.673 61.6517 150.329 62.1907C148.921 62.7497 147.416 63.0298 145.9 63.0152V63.0152Z" fill="black"/>
<path d="M178.407 74.7345C176.774 74.7299 175.143 74.637 173.52 74.4562C171.853 74.2757 170.202 73.9681 168.582 73.536V66.9124C170.161 67.342 171.766 67.6713 173.387 67.8984C174.827 68.1025 176.28 68.209 177.734 68.2172C180.597 68.2172 182.678 67.6845 183.977 66.6192C185.276 65.5538 185.925 63.778 185.923 61.2918V59.3793H185.529C184.672 60.4215 183.583 61.2516 182.347 61.8039C180.953 62.407 179.443 62.7 177.923 62.6624C175.95 62.6712 174.012 62.1506 172.312 61.1558C170.578 60.1528 169.177 58.6079 168.111 56.5212C167.045 54.4344 166.513 51.7576 166.516 48.4908C166.516 43.4645 167.893 39.6062 170.649 36.9159C173.404 34.2257 177.582 32.8798 183.184 32.8784C184.438 32.8784 185.731 32.9408 187.065 33.0654C188.398 33.1901 189.699 33.3721 190.968 33.6115C192.16 33.8293 193.336 34.1275 194.487 34.504V59.7384C194.487 65.0127 193.162 68.8306 190.512 71.1922C187.863 73.5538 183.828 74.7345 178.407 74.7345ZM181.171 55.7689C182.041 55.7671 182.903 55.6184 183.722 55.329C184.541 55.0485 185.291 54.5995 185.923 54.0115V39.6784C185.396 39.5626 184.863 39.4739 184.326 39.4128C183.697 39.3407 183.065 39.3052 182.433 39.3065C180.071 39.3065 178.264 39.9589 177.011 41.2637C175.757 42.5684 175.131 44.743 175.131 47.7874C175.131 49.8487 175.381 51.4601 175.882 52.6218C176.383 53.7835 177.086 54.6009 177.989 55.074C178.977 55.5595 180.07 55.798 181.171 55.7689V55.7689Z" fill="black"/>
<path d="M213.841 63.0407C210.905 63.0407 208.368 62.4861 206.231 61.3768C204.09 60.2653 202.357 58.5128 201.277 56.3682C200.113 54.1384 199.531 51.3454 199.532 47.9893C199.532 44.5978 200.103 41.7836 201.245 39.5467C202.296 37.3956 204.019 35.6388 206.158 34.5381C208.299 33.4373 210.863 32.887 213.85 32.887C216.836 32.887 219.4 33.4416 221.54 34.5508C223.673 35.6577 225.395 37.4127 226.452 39.5595C227.594 41.7893 228.165 44.5815 228.165 47.9362C228.165 51.2909 227.583 54.0973 226.42 56.3555C225.34 58.5118 223.6 60.2734 221.45 61.3875C219.312 62.4896 216.776 63.0407 213.841 63.0407ZM213.841 56.5935C214.918 56.6246 215.982 56.3575 216.914 55.8221C217.771 55.3078 218.42 54.4245 218.861 53.1722C219.302 51.9199 219.525 50.2015 219.531 48.017C219.531 45.78 219.307 44.0312 218.861 42.7703C218.414 41.5095 217.765 40.617 216.914 40.0928C215.985 39.5477 214.92 39.2751 213.841 39.3066C212.764 39.2751 211.699 39.5423 210.766 40.078C209.91 40.595 209.261 41.479 208.82 42.73C208.378 43.9809 208.155 45.7078 208.149 47.9107C208.149 50.1476 208.373 51.8965 208.82 53.1573C209.266 54.4182 209.915 55.3064 210.766 55.8221C211.699 56.3578 212.764 56.6249 213.841 56.5935Z" fill="black"/>
<path d="M17 36.6674C17 30.6556 19.4066 24.8901 23.6904 20.6391C27.9742 16.3882 33.7843 14 39.8425 14V36.6674H17Z" fill="black"/>
<path d="M55.0701 29.1109C55.8232 29.1109 56.5593 28.8894 57.1854 28.4742C57.8116 28.059 58.2996 27.469 58.5877 26.7786C58.8759 26.0882 58.9513 25.3285 58.8044 24.5956C58.6575 23.8627 58.2949 23.1895 57.7624 22.6611C57.2299 22.1327 56.5515 21.7728 55.8129 21.627C55.0744 21.4813 54.3088 21.5561 53.6131 21.842C52.9174 22.128 52.3227 22.6123 51.9044 23.2336C51.486 23.8549 51.2627 24.5854 51.2627 25.3327C51.2627 26.3347 51.6638 27.2958 52.3779 28.0043C53.0919 28.7129 54.0603 29.1109 55.0701 29.1109V29.1109Z" fill="black"/>
<path d="M70.2975 29.111C70.2975 33.0797 69.5097 37.0097 67.9792 40.6763C66.4487 44.343 64.2054 47.6746 61.3774 50.481C55.6659 56.1486 47.9195 59.3327 39.8423 59.3327V82.0001C65.0724 82.0001 85.5251 65.4825 85.5251 40.4436C85.5251 30.5751 79.1694 19.8311 70.2975 15.7256V29.111Z" fill="#FB3640"/>
</svg>
