<svg width="320" height="320" viewBox="0 0 320 320" fill="none" xmlns="http://www.w3.org/2000/svg">
<circle cx="160" cy="160" r="160" fill="white"/>
<path d="M38.5 123.836C38.5 101.866 47.2273 80.7968 62.7621 65.2621C78.2968 49.7273 99.3665 41 121.336 41V123.836H38.5Z" fill="black"/>
<path d="M176.557 96.2214C179.288 96.2214 181.958 95.4116 184.228 93.8944C186.499 92.3773 188.268 90.2209 189.314 87.6979C190.359 85.175 190.632 82.3988 190.099 79.7204C189.567 77.0421 188.251 74.5819 186.32 72.6509C184.39 70.7199 181.929 69.4049 179.251 68.8721C176.573 68.3394 173.796 68.6128 171.273 69.6578C168.751 70.7029 166.594 72.4726 165.077 74.7432C163.56 77.0138 162.75 79.6833 162.75 82.4141C162.75 86.076 164.205 89.588 166.794 92.1773C169.383 94.7667 172.895 96.2214 176.557 96.2214Z" fill="black"/>
<path d="M231.779 96.2213C231.779 110.725 228.922 125.086 223.372 138.486C217.821 151.885 209.686 164.061 199.431 174.316C178.719 195.028 150.627 206.664 121.336 206.664V289.5C212.831 289.5 287 229.138 287 137.635C287 101.572 263.952 62.3089 231.779 47.3057V96.2213Z" fill="#FB3640"/>
</svg>
